<svg width="25" height="24" viewBox="0 0 25 24" fill="none" xmlns="http://www.w3.org/2000/svg">
<g id="Adobe_Illustrator_CC_icon 1" clip-path="url(#clip0_20_28)">
<path id="Vector" d="M4.42708 0H20.5729C23.0208 0 25 1.94872 25 4.35897V19.641C25 22.0513 23.0208 24 20.5729 24H4.42708C1.97917 24 0 22.0513 0 19.641V4.35897C0 1.94872 1.97917 0 4.42708 0Z" fill="#330000"/>
<path id="Vector_2" d="M12.0833 14.3589H8.20831L7.41664 16.7692C7.39581 16.8615 7.31248 16.923 7.21873 16.9127H5.26039C5.14581 16.9127 5.11456 16.8512 5.14581 16.7281L8.49998 7.22043C8.53123 7.11787 8.56248 7.00505 8.60414 6.88197C8.64581 6.66659 8.66664 6.44095 8.66664 6.21531C8.65623 6.16402 8.69789 6.11274 8.74998 6.10249H11.4479C11.5312 6.10249 11.5729 6.13325 11.5833 6.18454L15.3854 16.7486C15.4166 16.8615 15.3854 16.9127 15.2812 16.9127H13.1041C13.0312 16.923 12.9583 16.8717 12.9375 16.7999L12.0833 14.3589ZM8.81248 12.2768H11.4583C11.3958 12.0615 11.3125 11.805 11.2187 11.5384C11.125 11.2615 11.0312 10.964 10.9375 10.6563C10.8333 10.3384 10.7396 10.0307 10.6354 9.71274C10.5312 9.39479 10.4375 9.09736 10.3541 8.79992C10.2708 8.51274 10.1979 8.24607 10.125 7.99992H10.1041C10.0104 8.44095 9.89581 8.88197 9.74998 9.323C9.59373 9.81531 9.43748 10.3281 9.27081 10.8409C9.12498 11.364 8.96873 11.8461 8.81248 12.2768ZM17.7083 7.89736C17.3646 7.90761 17.0312 7.77428 16.7812 7.53838C16.5416 7.28197 16.4166 6.94351 16.4271 6.59479C16.4166 6.24608 16.5521 5.91787 16.8021 5.68197C17.0521 5.44607 17.3854 5.323 17.7291 5.323C18.1354 5.323 18.4479 5.44607 18.6771 5.68197C18.9062 5.92813 19.0312 6.25633 19.0208 6.59479C19.0312 6.94351 18.9062 7.28197 18.6562 7.53838C18.4166 7.78454 18.0625 7.91787 17.7083 7.89736ZM16.5416 16.7999V8.90249C16.5416 8.79992 16.5833 8.7589 16.6771 8.7589H18.7396C18.8333 8.7589 18.875 8.81018 18.875 8.90249V16.7999C18.875 16.9127 18.8333 16.964 18.7396 16.964H16.6979C16.5937 16.964 16.5416 16.9025 16.5416 16.7999Z" fill="#FF9A00"/>
</g>
<defs>
<clipPath id="clip0_20_28">
<rect width="25" height="24" fill="white"/>
</clipPath>
</defs>
</svg>
