<svg width="21" height="24" viewBox="0 0 21 24" fill="none" xmlns="http://www.w3.org/2000/svg">
<g id="Frame" clip-path="url(#clip0_20_247)">
<g id="Layer_x0020_1">
<g id="_513085304">
<path id="Vector" fill-rule="evenodd" clip-rule="evenodd" d="M19.0311 21.6664L10.5 24L1.96869 21.6664L0 0H21L19.0311 21.6664Z" fill="#2062AF"/>
<path id="Vector_2" fill-rule="evenodd" clip-rule="evenodd" d="M10.4998 1.75488V22.1388L10.5192 22.1441L17.423 20.2556L19.0166 1.75488H10.4998Z" fill="#3C9CD7"/>
<path id="Vector_3" fill-rule="evenodd" clip-rule="evenodd" d="M10.4923 7.17238L4.38623 9.75574L4.58872 12.3135L10.4923 9.74926L16.7721 7.02168L17.0325 4.40527L10.4923 7.17238Z" fill="white"/>
<g id="Mask group">
<mask id="mask0_20_247" style="mask-type:luminance" maskUnits="userSpaceOnUse" x="4" y="7" width="7" height="6">
<g id="Group">
<path id="Vector_4" fill-rule="evenodd" clip-rule="evenodd" d="M4.37561 7.16162H10.503V12.3243H4.37561V7.16162Z" fill="url(#paint0_linear_20_247)"/>
</g>
</mask>
<g mask="url(#mask0_20_247)">
<path id="Vector_5" fill-rule="evenodd" clip-rule="evenodd" d="M4.38623 9.75573L4.58872 12.3135L10.4922 9.74925V7.17236L4.38623 9.75573Z" fill="url(#paint1_linear_20_247)"/>
</g>
</g>
<g id="Mask group_2">
<mask id="mask1_20_247" style="mask-type:luminance" maskUnits="userSpaceOnUse" x="10" y="4" width="8" height="6">
<g id="Group_2">
<path id="Vector_6" fill-rule="evenodd" clip-rule="evenodd" d="M10.4817 4.39453H17.0431V9.76005H10.4817V4.39453Z" fill="url(#paint2_linear_20_247)"/>
</g>
</mask>
<g mask="url(#mask1_20_247)">
<path id="Vector_7" fill-rule="evenodd" clip-rule="evenodd" d="M17.0325 4.40527L10.4923 7.17231V9.74919L16.7721 7.02161L17.0325 4.40527Z" fill="url(#paint3_linear_20_247)"/>
</g>
</g>
<path id="Vector_8" fill-rule="evenodd" clip-rule="evenodd" d="M4.39557 9.75586L4.59813 12.3136L13.6564 12.3429L13.4537 15.7532L10.4731 16.6057L7.60776 15.8707L7.43411 13.754H4.77177L5.11906 17.8404L10.502 19.4573L15.8557 17.8697L16.5503 9.75586H4.39557Z" fill="url(#paint4_linear_20_247)"/>
<path id="Vector_9" fill-rule="evenodd" clip-rule="evenodd" d="M10.4923 9.75586H4.38629L4.58878 12.3136L10.4923 12.3327V9.75586ZM10.4923 16.5975L10.4634 16.6057L7.59848 15.8707L7.42484 13.754H4.76257L5.10978 17.8404L10.4923 19.4573V16.5975Z" fill="black" fill-opacity="0.05098"/>
<path id="Vector_10" fill-rule="evenodd" clip-rule="evenodd" d="M3.83636 4.40552H17.0325L16.7721 7.02193H4.15466L3.83636 4.40552Z" fill="url(#paint5_linear_20_247)"/>
<path id="Vector_11" fill-rule="evenodd" clip-rule="evenodd" d="M10.4923 4.40552H3.83636L4.15466 7.02193H10.4923V4.40552Z" fill="black" fill-opacity="0.05098"/>
</g>
</g>
</g>
<defs>
<linearGradient id="paint0_linear_20_247" x1="7.43925" y1="7.17241" x2="7.43925" y2="12.3135" gradientUnits="userSpaceOnUse">
<stop stop-color="white" stop-opacity="0"/>
<stop offset="0.388" stop-color="white"/>
<stop offset="1" stop-color="white" stop-opacity="0.831"/>
</linearGradient>
<linearGradient id="paint1_linear_20_247" x1="7.43923" y1="7.17236" x2="7.43923" y2="12.3135" gradientUnits="userSpaceOnUse">
<stop stop-color="#D1D3D4"/>
<stop offset="0.388" stop-color="#D1D3D4"/>
<stop offset="1" stop-color="#D1D3D4"/>
</linearGradient>
<linearGradient id="paint2_linear_20_247" x1="13.7624" y1="4.40532" x2="13.7624" y2="9.74925" gradientUnits="userSpaceOnUse">
<stop stop-color="white" stop-opacity="0"/>
<stop offset="0.388" stop-color="white"/>
<stop offset="1" stop-color="white" stop-opacity="0.831"/>
</linearGradient>
<linearGradient id="paint3_linear_20_247" x1="13.7624" y1="4.40526" x2="13.7624" y2="9.74919" gradientUnits="userSpaceOnUse">
<stop stop-color="#D1D3D4"/>
<stop offset="0.388" stop-color="#D1D3D4"/>
<stop offset="1" stop-color="#D1D3D4"/>
</linearGradient>
<linearGradient id="paint4_linear_20_247" x1="4.39559" y1="14.6066" x2="16.5503" y2="14.6066" gradientUnits="userSpaceOnUse">
<stop stop-color="#E8E7E5"/>
<stop offset="1" stop-color="white"/>
</linearGradient>
<linearGradient id="paint5_linear_20_247" x1="3.83634" y1="5.71372" x2="17.0325" y2="5.71372" gradientUnits="userSpaceOnUse">
<stop stop-color="#E8E7E5"/>
<stop offset="1" stop-color="white"/>
</linearGradient>
<clipPath id="clip0_20_247">
<rect width="21" height="24" fill="white"/>
</clipPath>
</defs>
</svg>
