<svg width="21" height="24" viewBox="0 0 21 24" fill="none" xmlns="http://www.w3.org/2000/svg">
<g id="Layer_1" clip-path="url(#clip0_20_239)">
<g id="Group">
<path id="Vector" fill-rule="evenodd" clip-rule="evenodd" d="M21 0L19.087 21.5977L10.4874 24L1.91103 21.6016L0 0H21Z" fill="#E44D26"/>
<path id="Vector_2" fill-rule="evenodd" clip-rule="evenodd" d="M10.499 22.1641L17.4493 20.2227L19.0831 1.76562H10.499V22.1641Z" fill="#F16529"/>
<path id="Vector_3" fill-rule="evenodd" clip-rule="evenodd" d="M6.78165 7.06445H10.501V4.41602H3.90735L3.96937 5.12695L4.61478 12.4277H10.4971V9.77734H7.02198L6.78165 7.06445ZM7.37278 13.752H4.73494L5.1032 17.9121L10.4894 19.418L10.501 19.4141V16.6582L10.4894 16.6621L7.56079 15.8652L7.37278 13.752Z" fill="#EBEBEB"/>
<path id="Vector_4" fill-rule="evenodd" clip-rule="evenodd" d="M10.4913 12.4277H13.7281L13.4238 15.8633L10.4913 16.6602V19.416L15.8814 17.9102L15.9201 17.4629L16.5384 10.4883L16.6024 9.77734H10.4913V12.4277ZM10.4913 7.05859V7.06445H16.8408L16.8931 6.46875L17.0133 5.125L17.0753 4.41406H10.4913V7.05859Z" fill="white"/>
</g>
</g>
<defs>
<clipPath id="clip0_20_239">
<rect width="21" height="24" fill="white"/>
</clipPath>
</defs>
</svg>
