<svg width="24" height="24" viewBox="0 0 24 24" fill="none" xmlns="http://www.w3.org/2000/svg">
<g id="Midjourney_Emblem 1">
<g id="Group">
<path id="waves" d="M1 21.0869C1.6443 21.0869 2.61075 19.7338 3.73828 19.5405C4.38258 19.5405 4.86581 20.8936 6.47656 21.0869C7.60409 21.0869 8.08732 19.7338 9.21484 19.7338C10.3424 19.7338 10.8256 21.0869 11.9531 21.0869C13.0807 21.0869 13.5639 19.7338 14.6914 19.7338C15.8189 19.7338 16.3022 21.0869 17.4297 21.0869C18.5572 21.0869 19.0404 19.7338 20.168 19.7338C21.2955 19.7338 21.7787 21.0869 22.9063 21.0869" stroke="#F4F4F4" stroke-linecap="round" stroke-linejoin="round"/>
<path id="hull" d="M3.20348 19.7402L2.46576 18.3292L21.4727 17.105C19.9779 18.4645 18.0579 19.5662 16.1153 20.4682" stroke="#F4F4F4" stroke-linecap="round" stroke-linejoin="round"/>
<path id="front_sail" d="M10.0331 5.18555C13.2675 6.17455 17.7905 10.952 19.3304 16.0871C18.4864 15.7553 17.855 15.4171 16.6694 15.7199C15.5226 11.548 13.4705 7.56302 10.0331 5.18555Z" stroke="#F4F4F4" stroke-linecap="round" stroke-linejoin="round"/>
<path id="rear_sail" d="M4.01854 2.90137C8.1614 4.6732 13.8441 9.60532 14.8879 16.174C10.1104 14.2475 6.47333 15.2752 3.94122 16.8376C7.80381 11.928 6.07064 6.34516 4.01854 2.90137Z" stroke="#F4F4F4" stroke-linecap="round" stroke-linejoin="round"/>
</g>
</g>
</svg>
