<svg width="25" height="24" viewBox="0 0 25 24" fill="none" xmlns="http://www.w3.org/2000/svg">
<g id="Adobe_Photoshop_CC_icon 1" clip-path="url(#clip0_20_33)">
<g id="Layer_2_1_">
<g id="Surfaces">
<g id="Photo_Surface">
<g id="Outline_no_shadow">
<path id="Vector" d="M4.42708 0H20.5729C23.0208 0 25 1.94872 25 4.35897V19.641C25 22.0513 23.0208 24 20.5729 24H4.42708C1.97917 24 0 22.0513 0 19.641V4.35897C0 1.94872 1.97917 0 4.42708 0Z" fill="#001E36"/>
</g>
</g>
</g>
<g id="Outlined_Mnemonics_Logos">
<g id="Ps">
<path id="Vector_2" d="M5.625 16.8307V6.2769C5.625 6.2051 5.65625 6.16408 5.72917 6.16408C5.90625 6.16408 6.07292 6.16408 6.3125 6.15382C6.5625 6.14356 6.82292 6.14356 7.10417 6.13331C7.38542 6.12305 7.6875 6.12305 8.01042 6.1128C8.33333 6.10254 8.64583 6.10254 8.95833 6.10254C9.8125 6.10254 10.5208 6.2051 11.1042 6.42049C11.625 6.59485 12.1042 6.88203 12.5 7.26151C12.8333 7.58972 13.0938 7.98972 13.2604 8.43074C13.4167 8.86151 13.5 9.30254 13.5 9.76408C13.5 10.6461 13.2917 11.3743 12.875 11.9487C12.4583 12.5231 11.875 12.9538 11.1979 13.2C10.4896 13.4564 9.70833 13.5487 8.85417 13.5487C8.60417 13.5487 8.4375 13.5487 8.33333 13.5384C8.22917 13.5282 8.08333 13.5282 7.88542 13.5282V16.8205C7.89583 16.8923 7.84375 16.9538 7.77083 16.9641C7.76042 16.9641 7.75 16.9641 7.72917 16.9641H5.75C5.66667 16.9641 5.625 16.9231 5.625 16.8307ZM7.89583 8.14356V11.5897C8.04167 11.6 8.17708 11.6102 8.30208 11.6102H8.85417C9.26042 11.6102 9.66667 11.5487 10.0521 11.4256C10.3854 11.3333 10.6771 11.1384 10.9062 10.882C11.125 10.6256 11.2292 10.2769 11.2292 9.82562C11.2396 9.50767 11.1562 9.18972 10.9896 8.9128C10.8125 8.64613 10.5625 8.441 10.2604 8.32818C9.875 8.17433 9.45833 8.1128 9.03125 8.12305C8.76042 8.12305 8.52083 8.12305 8.32292 8.13331C8.11458 8.12305 7.96875 8.13331 7.89583 8.14356Z" fill="#31A8FF"/>
<path id="Vector_3" d="M20 10.9642C19.6875 10.8001 19.3542 10.6873 19 10.6155C18.6146 10.5334 18.2292 10.4821 17.8334 10.4821C17.625 10.4719 17.4063 10.5027 17.2084 10.5539C17.0729 10.5847 16.9584 10.6565 16.8854 10.7591C16.8334 10.8411 16.8021 10.9437 16.8021 11.036C16.8021 11.1283 16.8438 11.2206 16.9063 11.3026C17 11.4155 17.125 11.5078 17.2604 11.5796C17.5 11.7027 17.75 11.8155 18 11.918C18.5625 12.1026 19.1042 12.3591 19.6042 12.6668C19.9479 12.8821 20.2292 13.1693 20.4271 13.518C20.5938 13.8462 20.6771 14.2052 20.6667 14.5744C20.6771 15.0565 20.5313 15.5385 20.2604 15.9385C19.9688 16.3488 19.5625 16.6668 19.0938 16.8514C18.5834 17.0668 17.9584 17.1796 17.2084 17.1796C16.7292 17.1796 16.2604 17.1385 15.7917 17.0462C15.4271 16.9847 15.0625 16.8719 14.7292 16.718C14.6563 16.677 14.6042 16.6052 14.6146 16.5232V14.7385C14.6146 14.7078 14.625 14.6668 14.6563 14.6462C14.6875 14.6257 14.7188 14.636 14.75 14.6565C15.1563 14.8924 15.5834 15.0565 16.0417 15.1591C16.4375 15.2616 16.8542 15.3129 17.2709 15.3129C17.6667 15.3129 17.9479 15.2616 18.1354 15.1693C18.3021 15.0975 18.4167 14.9232 18.4167 14.7385C18.4167 14.595 18.3334 14.4616 18.1667 14.3283C18 14.195 17.6563 14.0411 17.1459 13.8462C16.6146 13.6616 16.125 13.4155 15.6667 13.1078C15.3438 12.8821 15.0729 12.5847 14.875 12.236C14.7084 11.9078 14.625 11.5488 14.6354 11.1898C14.6354 10.7488 14.7604 10.3283 14.9896 9.9488C15.25 9.53855 15.6354 9.21034 16.0834 9.00521C16.5729 8.75906 17.1875 8.64624 17.9271 8.64624C18.3542 8.64624 18.7917 8.67701 19.2188 8.73855C19.5313 8.77957 19.8334 8.86162 20.1146 8.97445C20.1563 8.9847 20.1979 9.02573 20.2188 9.06675C20.2292 9.10778 20.2396 9.1488 20.2396 9.18983V10.8616C20.2396 10.9027 20.2188 10.9437 20.1875 10.9642C20.0938 10.9847 20.0417 10.9847 20 10.9642Z" fill="#31A8FF"/>
</g>
</g>
</g>
</g>
<defs>
<clipPath id="clip0_20_33">
<rect width="25" height="24" fill="white"/>
</clipPath>
</defs>
</svg>
