<svg width="25" height="24" viewBox="0 0 25 24" fill="none" xmlns="http://www.w3.org/2000/svg">
<g id="Frame" clip-path="url(#clip0_20_22)">
<path id="Vector" d="M20.5727 0H4.42726C1.98215 0 0 1.95165 0 4.35914V19.6409C0 22.0483 1.98215 24 4.42726 24H20.5727C23.0178 24 25 22.0483 25 19.6409V4.35914C25 1.95165 23.0178 0 20.5727 0Z" fill="#470137"/>
<path id="Vector_2" d="M13.1422 6.31186L10.0229 11.381L13.3603 16.7642C13.3817 16.8019 13.3877 16.8462 13.3769 16.8881C13.3657 16.9265 13.3281 16.9025 13.2598 16.9131H10.8791C10.7113 16.9131 10.5942 16.9073 10.5268 16.7973C10.3034 16.3679 10.0798 15.9414 9.85605 15.5177C9.63229 15.094 9.3947 14.6617 9.14329 14.2208C8.89221 13.7808 8.64357 13.3348 8.39737 12.883H8.38029C8.15653 13.3236 7.92448 13.7641 7.68413 14.2044C7.44378 14.6447 7.20619 15.0823 6.97137 15.5172C6.73656 15.9518 6.49621 16.3841 6.25033 16.8141C6.20545 16.9131 6.12739 16.9237 6.01567 16.9237H3.71691C3.67252 16.9237 3.64764 16.941 3.64178 16.8968C3.63542 16.8565 3.64427 16.8153 3.66666 16.781L6.90356 11.5452L3.75057 6.29505C3.71691 6.25134 3.71155 6.21531 3.73399 6.18793C3.74644 6.17408 3.76202 6.1633 3.77947 6.15646C3.79693 6.14962 3.81577 6.14691 3.83448 6.14855H6.19911C6.25072 6.14582 6.30233 6.15418 6.35034 6.17304C6.39032 6.19572 6.42466 6.2269 6.45084 6.26431C6.65183 6.70431 6.87543 7.14462 7.12163 7.58526C7.36784 8.0259 7.61664 8.45965 7.86805 8.88652C8.11913 9.31595 8.35102 9.75082 8.56373 10.1911H8.5808C8.80424 9.73993 9.0306 9.29961 9.25989 8.87019C9.48918 8.44076 9.724 8.00844 9.96435 7.57325C10.2044 7.13838 10.4363 6.70607 10.66 6.27632C10.6731 6.23552 10.6962 6.19855 10.7274 6.16872C10.7687 6.148 10.8153 6.13949 10.8615 6.14422H13.0568C13.0777 6.14038 13.0992 6.14332 13.1182 6.1526C13.1372 6.16189 13.1526 6.17701 13.1621 6.19568C13.1716 6.21436 13.1746 6.23556 13.1708 6.25609C13.1669 6.27662 13.1564 6.29535 13.1408 6.30946L13.1422 6.31186Z" fill="#FF61F6"/>
<path id="Vector_3" d="M17.9554 17.1273C17.1834 17.1389 16.4184 16.9811 15.7161 16.6652C15.0621 16.3669 14.5152 15.8803 14.1477 15.2698C13.7678 14.6479 13.5777 13.8691 13.5774 12.9334C13.5719 12.1761 13.7686 11.4307 14.1477 10.7718C14.5386 10.1006 15.1134 9.55133 15.8064 9.18667C16.5326 8.79055 17.4108 8.59249 18.4408 8.59249C18.4964 8.59249 18.5691 8.59249 18.6589 8.60065C18.7486 8.60882 18.854 8.61458 18.9774 8.62515V5.37033C18.9774 5.29347 19.0111 5.25504 19.0779 5.25504H21.1908C21.2141 5.25174 21.2379 5.25767 21.2568 5.27153C21.2757 5.28539 21.2883 5.30605 21.2918 5.32902C21.2928 5.33732 21.2928 5.3457 21.2918 5.354V15.1127C21.2918 15.3 21.3001 15.5037 21.3167 15.7237C21.3333 15.9437 21.3472 16.1419 21.3586 16.3184C21.3607 16.3527 21.3522 16.3868 21.3343 16.4162C21.3163 16.4457 21.2898 16.4692 21.2581 16.4836C20.713 16.7074 20.1452 16.8734 19.5643 16.9788C19.0335 17.0752 18.4951 17.1249 17.9554 17.1273ZM18.9799 15.08V10.572C18.8892 10.5481 18.7967 10.5321 18.7032 10.524C18.589 10.5126 18.4742 10.507 18.3593 10.5071C17.9523 10.5032 17.55 10.5937 17.1851 10.7713C16.8305 10.9455 16.5279 11.2074 16.3069 11.5312C16.0776 11.8614 15.963 12.2961 15.963 12.8354C15.9548 13.1953 16.0145 13.5536 16.1391 13.8921C16.2405 14.1649 16.4006 14.4128 16.6084 14.6189C16.8077 14.8082 17.0488 14.9496 17.3129 15.032C17.5919 15.1207 17.8836 15.1652 18.1769 15.1636C18.333 15.1636 18.4782 15.1582 18.6125 15.1473C18.7362 15.1374 18.8585 15.1149 18.9774 15.08H18.9799Z" fill="#FF61F6"/>
</g>
<defs>
<clipPath id="clip0_20_22">
<rect width="25" height="24" fill="white"/>
</clipPath>
</defs>
</svg>
